<?xml version="1.0" encoding="UTF-8"?>
<svg version="1.1" xmlns="http://www.w3.org/2000/svg" width="180" height="180">
<path d="M0 0 C3.3 0 6.6 0 10 0 C10.01458252 0.92337158 10.02916504 1.84674316 10.04418945 2.7980957 C10.10526308 6.22577204 10.1794161 9.65264662 10.26245117 13.07983398 C10.29569423 14.56279854 10.32372823 16.04588944 10.34643555 17.52905273 C10.37999468 19.66184293 10.43230638 21.79347612 10.48828125 23.92578125 C10.51446533 25.20880127 10.54064941 26.49182129 10.56762695 27.8137207 C10.74000902 30.94578283 10.74000902 30.94578283 12.34448242 32.87963867 C15.72395705 35.16667732 18.9156801 35.19075831 22.875 35.25 C23.90367188 35.27578125 24.93234375 35.3015625 25.9921875 35.328125 C29.41220687 34.95503198 31.25025853 34.03027507 34 32 C35.44962183 29.10075634 35.22126481 26.47699645 35.31640625 23.2421875 C35.33718735 22.57913605 35.35796844 21.91608459 35.37937927 21.23294067 C35.44479231 19.11373306 35.50372105 16.994401 35.5625 14.875 C35.60569309 13.43878919 35.64930764 12.00259098 35.69335938 10.56640625 C35.80046499 7.04440406 35.90175575 3.52226175 36 0 C38.97 0 41.94 0 45 0 C45.09965569 4.26832981 45.17183391 8.53602469 45.21972656 12.80517578 C45.23971295 14.25418917 45.26691197 15.70312325 45.30175781 17.15185547 C45.52281848 26.58594449 45.651716 34.08985534 38.75 41.375 C31.25353801 45.80472754 22.28599053 45.93828458 13.875 44.4375 C9.03248102 43.03986241 5.06758872 39.95330096 2 36 C0.35746403 31.19359891 -0.24033602 27.03780239 -0.1953125 21.97265625 C-0.18886719 20.68681641 -0.18242188 19.40097656 -0.17578125 18.07617188 C-0.15907601 16.73827846 -0.14214619 15.40038783 -0.125 14.0625 C-0.11495322 12.69727217 -0.10583036 11.3320372 -0.09765625 9.96679688 C-0.07417605 6.64434801 -0.04133359 3.32226679 0 0 Z " fill="#C2202C" transform="translate(37,48)"/>
<path d="M0 0 C13.2 0 26.4 0 40 0 C40 2.97 40 5.94 40 9 C35.05 9.33 30.1 9.66 25 10 C25.01160156 12.44277344 25.02320313 14.88554688 25.03515625 17.40234375 C25.04294684 19.75870636 25.04902359 22.11506756 25.05493164 24.47143555 C25.05997174 26.11369464 25.06680378 27.75594923 25.07543945 29.39819336 C25.08751926 31.75375479 25.09323139 34.10925709 25.09765625 36.46484375 C25.10281754 37.20339096 25.10797882 37.94193817 25.11329651 38.7028656 C25.1134925 40.46898088 25.06194719 42.23497146 25 44 C24.67 44.33 24.34 44.66 24 45 C21.36 45 18.72 45 16 45 C16 33.12 16 21.24 16 9 C10.72 9 5.44 9 0 9 C0 6.03 0 3.06 0 0 Z " fill="#1D4375" transform="translate(107,48)"/>
<path d="M0 0 C0.02465098 4.96622349 0.04283649 9.93241166 0.05493164 14.89868164 C0.0599719 16.58944316 0.06680405 18.28020029 0.07543945 19.97094727 C0.08751857 22.39600707 0.09323123 24.82100944 0.09765625 27.24609375 C0.10281754 28.00651474 0.10797882 28.76693573 0.11329651 29.55039978 C0.11349238 31.3673257 0.06197277 33.18413127 0 35 C-1 36 -1 36 -4.5 36.125 C-8 36 -8 36 -9 35 C-9.39568405 30.46769723 -9.41855907 25.92211859 -9.5 21.375 C-9.55414063 20.10269531 -9.60828125 18.83039063 -9.6640625 17.51953125 C-9.79880222 8.28986076 -9.79880222 8.28986076 -7.4765625 4.54003906 C-3.06689232 0 -3.06689232 0 0 0 Z " fill="#012E66" transform="translate(102,57)"/>
<path d="M0 0 C0.66 0 1.32 0 2 0 C2.02465098 4.96622349 2.04283649 9.93241166 2.05493164 14.89868164 C2.0599719 16.58944316 2.06680405 18.28020029 2.07543945 19.97094727 C2.08751857 22.39600707 2.09323123 24.82100944 2.09765625 27.24609375 C2.10281754 28.00651474 2.10797882 28.76693573 2.11329651 29.55039978 C2.11349238 31.3673257 2.06197277 33.18413127 2 35 C1 36 1 36 -2.5 36.125 C-6 36 -6 36 -7 35 C-7.08767112 32.92737924 -7.10695873 30.85179706 -7.09765625 28.77734375 C-7.09443359 27.51728516 -7.09121094 26.25722656 -7.08789062 24.95898438 C-7.07953403 23.61848891 -7.07106907 22.27799412 -7.0625 20.9375 C-7.0574866 19.59310058 -7.05292342 18.2486994 -7.04882812 16.90429688 C-7.03699488 13.60282059 -7.02050971 10.30143197 -7 7 C-6.67 7 -6.34 7 -6 7 C-5.14304033 12.88400655 -4.87460766 18.55909292 -4.9375 24.5 C-4.94201172 25.32242188 -4.94652344 26.14484375 -4.95117188 26.9921875 C-4.96281511 28.99482396 -4.98074444 30.99742227 -5 33 C-3.02 33 -1.04 33 1 33 C0.67 23.1 0.34 13.2 0 3 C-0.66 2.67 -1.32 2.34 -2 2 C-1.34 1.34 -0.68 0.68 0 0 Z " fill="#4A678E" transform="translate(100,57)"/>
<path d="M0 0 C2.97 0 5.94 0 9 0 C9.43368167 3.0899819 9.70003481 5.01837024 9 8 C6.66455641 10.79521772 4.01245149 12.96197785 1 15 C0.67 15 0.34 15 0 15 C0 10.05 0 5.1 0 0 Z " fill="#C62D36" transform="translate(93,48)"/>
<path d="M0 0 C8.25 0 16.5 0 25 0 C25 0.99 25 1.98 25 3 C16.75 3 8.5 3 0 3 C0 2.01 0 1.02 0 0 Z " fill="#7D8DAB" transform="translate(145,116)"/>
<path d="M0 0 C8.25 0 16.5 0 25 0 C25 0.99 25 1.98 25 3 C16.75 3 8.5 3 0 3 C0 2.01 0 1.02 0 0 Z " fill="#7E8EAA" transform="translate(12,116)"/>
<path d="M0 0 C0.99 0 1.98 0 3 0 C3.66 0.99 4.32 1.98 5 3 C5.66 2.01 6.32 1.02 7 0 C7.66 0 8.32 0 9 0 C9 2.64 9 5.28 9 8 C8.2575 7.814375 7.515 7.62875 6.75 7.4375 C4.05009037 7.00796892 2.55368923 7.14877026 0 8 C0 5.36 0 2.72 0 0 Z " fill="#536C92" transform="translate(46,101)"/>
<path d="M0 0 C1.98 0.99 1.98 0.99 4 2 C4.33 1.34 4.66 0.68 5 0 C5.99 0 6.98 0 8 0 C8 2.64 8 5.28 8 8 C7.4225 7.814375 6.845 7.62875 6.25 7.4375 C3.79307475 6.95976454 2.35602466 7.24270636 0 8 C0 5.36 0 2.72 0 0 Z M2 4 C3 6 3 6 3 6 Z " fill="#526990" transform="translate(99,101)"/>
<path d="M0 0 C0.99 0 1.98 0 3 0 C3 1.98 3 3.96 3 6 C3.66 6 4.32 6 5 6 C5 4.02 5 2.04 5 0 C5.99 0 6.98 0 8 0 C8.36923077 5.53846154 8.36923077 5.53846154 6.5 7.875 C5.7575 8.431875 5.7575 8.431875 5 9 C2.525 8.01 2.525 8.01 0 7 C0 4.69 0 2.38 0 0 Z " fill="#5E7799" transform="translate(12,101)"/>
<path d="M0 0 C0.66 0 1.32 0 2 0 C2 1.98 2 3.96 2 6 C2.66 6 3.32 6 4 6 C4 4.02 4 2.04 4 0 C4.99 0 5.98 0 7 0 C7 2.31 7 4.62 7 7 C5.02 7.99 5.02 7.99 3 9 C2.01 8.34 1.02 7.68 0 7 C-0.1875 3.375 -0.1875 3.375 0 0 Z " fill="#546D93" transform="translate(144,101)"/>
<path d="M0 0 C3.86107457 2.57404971 3.94319692 4.61020259 5 9 C3.6078125 8.7215625 3.6078125 8.7215625 2.1875 8.4375 C-1.01343771 7.75876119 -1.01343771 7.75876119 -4 9 C-3.46930939 5.17902761 -2.50298434 2.93828597 0 0 Z M0 3 C1 5 1 5 1 5 Z " fill="#566E93" transform="translate(62,101)"/>
<path d="M0 0 C1.98 0 3.96 0 6 0 C6 2.64 6 5.28 6 8 C4.02 8 2.04 8 0 8 C0 5.36 0 2.72 0 0 Z " fill="#4C6589" transform="translate(78,101)"/>
<path d="M0 0 C1.98 0 3.96 0 6 0 C6 2.66666667 6 5.33333333 6 8 C4.02 8 2.04 8 0 8 C0 5.36 0 2.72 0 0 Z " fill="#496489" transform="translate(164,101)"/>
<path d="M0 0 C0 2.31 0 4.62 0 7 C-3.75 8.125 -3.75 8.125 -6 7 C-6 4.66666667 -6 2.33333333 -6 0 C-3.50907189 -1.24546405 -2.58919267 -0.7767578 0 0 Z " fill="#546B90" transform="translate(116,102)"/>
<path d="M0 0 C2.31 0 4.62 0 7 0 C6.34 2.64 5.68 5.28 5 8 C4.01 8 3.02 8 2 8 C2 6.35 2 4.7 2 3 C1.34 3 0.68 3 0 3 C0 2.01 0 1.02 0 0 Z " fill="#657A9A" transform="translate(134,101)"/>
<path d="M0 0 C2.31 0 4.62 0 7 0 C7 0.66 7 1.32 7 2 C6.34 2 5.68 2 5 2 C5 3.98 5 5.96 5 8 C4.01 8 3.02 8 2 8 C2 6.02 2 4.04 2 2 C1.34 2 0.68 2 0 2 C0 1.34 0 0.68 0 0 Z " fill="#5A7396" transform="translate(68,101)"/>
<path d="M0 0 C2.64 0 5.28 0 8 0 C7.67 0.99 7.34 1.98 7 3 C6.67 3 6.34 3 6 3 C5.67 4.65 5.34 6.3 5 8 C4.34 8 3.68 8 3 8 C3 6.35 3 4.7 3 3 C2.01 2.67 1.02 2.34 0 2 C0 1.34 0 0.68 0 0 Z " fill="#526C8F" transform="translate(30,101)"/>
<path d="M0 0 C2.31 0 4.62 0 7 0 C6.67 0.99 6.34 1.98 6 3 C5.34 3 4.68 3 4 3 C4 4.65 4 6.3 4 8 C3.34 8 2.68 8 2 8 C2 6.35 2 4.7 2 3 C1.34 3 0.68 3 0 3 C0 2.01 0 1.02 0 0 Z " fill="#506B8E" transform="translate(154,101)"/>
<path d="M0 0 C0.99 0 1.98 0 3 0 C3 1.98 3 3.96 3 6 C3.99 6 4.98 6 6 6 C6 6.66 6 7.32 6 8 C4.02 8 2.04 8 0 8 C0 5.36 0 2.72 0 0 Z " fill="#5E7598" transform="translate(23,101)"/>
<path d="M0 0 C1.65 0 3.3 0 5 0 C5.33 1.65 5.66 3.3 6 5 C3.92446352 5.5534764 2.15634036 6 0 6 C0 4.02 0 2.04 0 0 Z " fill="#D2787D" transform="translate(88,114)"/>
<path d="M0 0 C1.32 0.66 2.64 1.32 4 2 C3.67 3.32 3.34 4.64 3 6 C1.35 6 -0.3 6 -2 6 C-2.33 4.68 -2.66 3.36 -3 2 C-2.01 1.34 -1.02 0.68 0 0 Z M0 2 C-0.33 2.66 -0.66 3.32 -1 4 C-0.01 3.67 0.98 3.34 2 3 C1.34 2.67 0.68 2.34 0 2 Z " fill="#D47F83" transform="translate(112,114)"/>
<path d="M0 0 C1.32 0.66 2.64 1.32 4 2 C3.67 3.32 3.34 4.64 3 6 C1.35 6 -0.3 6 -2 6 C-2.33 4.68 -2.66 3.36 -3 2 C-2.01 1.34 -1.02 0.68 0 0 Z M0 2 C-0.33 2.66 -0.66 3.32 -1 4 C-0.01 3.67 0.98 3.34 2 3 C1.34 2.67 0.68 2.34 0 2 Z " fill="#D58085" transform="translate(98,114)"/>
<path d="M0 0 C1.32 0 2.64 0 4 0 C4 1.98 4 3.96 4 6 C2.35 6 0.7 6 -1 6 C-1.042721 4.33388095 -1.04063832 2.66617115 -1 1 C-0.67 0.67 -0.34 0.34 0 0 Z " fill="#D78689" transform="translate(130,114)"/>
<path d="M0 0 C1.98 0 3.96 0 6 0 C6 1.65 6 3.3 6 5 C4.02 5 2.04 5 0 5 C0 3.35 0 1.7 0 0 Z " fill="#CE6A6F" transform="translate(80,115)"/>
<path d="M0 0 C2.31 0 4.62 0 7 0 C7 0.66 7 1.32 7 2 C6.01 2 5.02 2 4 2 C4 3.98 4 5.96 4 8 C3.34 8 2.68 8 2 8 C1.855625 7.236875 1.71125 6.47375 1.5625 5.6875 C1.0367406 2.91827092 1.0367406 2.91827092 0 0 Z " fill="#476289" transform="translate(119,101)"/>
<path d="M0 0 C1.32 0.66 2.64 1.32 4 2 C4 3.32 4 4.64 4 6 C2.35 6 0.7 6 -1 6 C-1.625 4.125 -1.625 4.125 -2 2 C-1.34 1.34 -0.68 0.68 0 0 Z M1 2 C0.67 2.66 0.34 3.32 0 4 C0.66 4 1.32 4 2 4 C1.67 3.34 1.34 2.68 1 2 Z " fill="#D47B7F" transform="translate(119,114)"/>
<path d="M0 0 C2.0625 0.4375 2.0625 0.4375 4 1 C3.67 2.65 3.34 4.3 3 6 C1.35 5.67 -0.3 5.34 -2 5 C-1.125 1.125 -1.125 1.125 0 0 Z M1 2 C0.67 2.66 0.34 3.32 0 4 C0.66 4 1.32 4 2 4 C1.67 3.34 1.34 2.68 1 2 Z " fill="#D2767A" transform="translate(43,114)"/>
<path d="M0 0 C1.32 0 2.64 0 4 0 C4 1.98 4 3.96 4 6 C2.35 5.67 0.7 5.34 -1 5 C-0.67 3.35 -0.34 1.7 0 0 Z " fill="#D47E81" transform="translate(67,114)"/>
<path d="M0 0 C0.99 0 1.98 0 3 0 C3 2.64 3 5.28 3 8 C2.01 8 1.02 8 0 8 C0 5.36 0 2.72 0 0 Z " fill="#416086" transform="translate(40,101)"/>
<path d="M0 0 C0.99 0.33 1.98 0.66 3 1 C2.67 1.66 2.34 2.32 2 3 C2.66 3.33 3.32 3.66 4 4 C4 4.66 4 5.32 4 6 C2.35 6 0.7 6 -1 6 C-1.625 4.125 -1.625 4.125 -2 2 C-1.34 1.34 -0.68 0.68 0 0 Z " fill="#D37F83" transform="translate(75,114)"/>
<path d="M0 0 C1.32 0 2.64 0 4 0 C3.67 1.65 3.34 3.3 3 5 C1.68 5.33 0.36 5.66 -1 6 C-1.042721 4.33388095 -1.04063832 2.66617115 -1 1 C-0.67 0.67 -0.34 0.34 0 0 Z " fill="#D8878A" transform="translate(50,114)"/>
<path d="M0 0 C0.99 0 1.98 0 3 0 C3.33 1.65 3.66 3.3 4 5 C2.35 5.33 0.7 5.66 -1 6 C-1.042721 4.33388095 -1.04063832 2.66617115 -1 1 C-0.67 0.67 -0.34 0.34 0 0 Z " fill="#D78286" transform="translate(137,114)"/>
<path d="M0 0 C0.33 0.99 0.66 1.98 1 3 C-0.98 4.32 -2.96 5.64 -5 7 C-5.33 6.01 -5.66 5.02 -6 4 C-3.94766315 1.7522025 -2.99332739 0.9977758 0 0 Z " fill="#143C72" transform="translate(100,59)"/>
<path d="M0 0 C1.65 0 3.3 0 5 0 C5 0.66 5 1.32 5 2 C4.34 2 3.68 2 3 2 C3 3.32 3 4.64 3 6 C2.34 6 1.68 6 1 6 C0.67 4.02 0.34 2.04 0 0 Z " fill="#D2787C" transform="translate(60,114)"/>
<path d="M0 0 C0.33 0.66 0.66 1.32 1 2 C1.639375 2.309375 2.27875 2.61875 2.9375 2.9375 C5 4 5 4 7 7 C4 7 4 7 1.8125 5.1875 C0 3 0 3 0 0 Z " fill="#C7363E" transform="translate(39,81)"/>
<path d="M0 0 C0.66 0 1.32 0 2 0 C2.33 2.64 2.66 5.28 3 8 C2.01 8 1.02 8 0 8 C0 5.36 0 2.72 0 0 Z " fill="#436289" transform="translate(93,101)"/>
<path d="M0 0 C0.66 0 1.32 0 2 0 C2 2.64 2 5.28 2 8 C1.34 8 0.68 8 0 8 C0 5.36 0 2.72 0 0 Z " fill="#365580" transform="translate(129,101)"/>
<path d="M0 0 C0.99 0 1.98 0 3 0 C3 0.99 3 1.98 3 3 C3.66 3 4.32 3 5 3 C5 3.66 5 4.32 5 5 C3.68 5 2.36 5 1 5 C0.67 3.35 0.34 1.7 0 0 Z " fill="#D6858A" transform="translate(103,115)"/>
<path d="M0 0 C0.66 0 1.32 0 2 0 C2 1.65 2 3.3 2 5 C1.34 5 0.68 5 0 5 C0 3.35 0 1.7 0 0 Z " fill="#C65D60" transform="translate(125,115)"/>
</svg>
